<svg width="31" height="30" viewBox="0 0 31 30" fill="none" xmlns="http://www.w3.org/2000/svg">
<path d="M28.1283 0H2.24252C1.0046 0 0 0.961085 0 2.14456V27.6152C0 28.8003 1.0046 29.7626 2.24252 29.7626H28.1283C29.3671 29.7626 30.3784 28.8003 30.3784 27.6152V2.14456C30.3784 0.961085 29.3671 0 28.1283 0ZM9.00973 23.108C9.00973 24.3528 8.00062 25.3619 6.75582 25.3619C5.51102 25.3619 4.50191 24.3528 4.50191 23.108V13.4128C4.50191 12.168 5.51102 11.1589 6.75582 11.1589C8.00062 11.1589 9.00973 12.168 9.00973 13.4128V23.108ZM6.75582 9.21691C6.41271 9.21691 6.07295 9.15067 5.75598 9.02198C5.439 8.89328 5.15102 8.70466 4.90847 8.46688C4.66593 8.2291 4.47359 7.94683 4.34244 7.6362C4.21129 7.32556 4.1439 6.99266 4.14412 6.6565C4.14412 5.97793 4.41926 5.32715 4.90901 4.84733C5.39876 4.3675 6.063 4.09794 6.75561 4.09794C7.44822 4.09794 8.11246 4.3675 8.60221 4.84733C9.09196 5.32715 9.3671 5.97793 9.3671 6.6565C9.3671 7.3352 9.09205 7.98614 8.6024 8.46625C8.11275 8.94636 7.44857 9.21636 6.75582 9.21691ZM25.8851 23.1116C25.885 24.3544 24.8775 25.3619 23.6347 25.3619C22.3918 25.3619 21.3843 24.3544 21.3843 23.1115V18.4553C21.3843 16.8076 21.3514 14.6891 19.0422 14.6891C16.6972 14.6891 16.3398 16.4835 16.3398 18.3358V23.1103C16.3398 24.3541 15.3315 25.3623 14.0878 25.3623C12.844 25.3623 11.8358 24.3541 11.8358 23.1103V13.3202C11.8358 12.1266 12.8034 11.1589 13.9971 11.1589H15.1886C15.7242 11.1589 16.1584 11.5931 16.1584 12.1287V13.0599C16.1584 13.0812 16.1756 13.0985 16.1969 13.0985C16.2111 13.0985 16.224 13.0908 16.2309 13.0784C16.8393 11.9683 18.3047 10.8047 20.4839 10.8047C25.0432 10.8047 25.8854 13.7454 25.8854 17.5711L25.8851 23.1116Z" fill="white"/>
</svg>
