<svg width="31" height="31" viewBox="0 0 31 31" fill="none" xmlns="http://www.w3.org/2000/svg">
<path d="M28.5975 0.990143H2.7117C1.47377 0.990143 0.469177 1.95123 0.469177 3.13471V28.6053C0.469177 29.7905 1.47377 30.7528 2.7117 30.7528H28.5975C29.8362 30.7528 30.8476 29.7905 30.8476 28.6053V3.13471C30.8476 1.95123 29.8362 0.990143 28.5975 0.990143ZM9.47891 24.0981C9.47891 25.3429 8.4698 26.352 7.225 26.352C5.9802 26.352 4.97109 25.3429 4.97109 24.0981V14.403C4.97109 13.1582 5.9802 12.1491 7.225 12.1491C8.4698 12.1491 9.47891 13.1582 9.47891 14.403V24.0981ZM7.225 10.2071C6.88188 10.2071 6.54213 10.1408 6.22516 10.0121C5.90818 9.88343 5.62019 9.6948 5.37765 9.45703C5.13511 9.21925 4.94277 8.93698 4.81162 8.62634C4.68047 8.31571 4.61308 7.9828 4.6133 7.64664C4.6133 6.96807 4.88844 6.31729 5.37819 5.83747C5.86794 5.35765 6.53218 5.08809 7.22479 5.08809C7.9174 5.08809 8.58164 5.35765 9.07139 5.83747C9.56114 6.31729 9.83628 6.96807 9.83628 7.64664C9.83628 8.32535 9.56123 8.97628 9.07158 9.45639C8.58193 9.93651 7.91775 10.2065 7.225 10.2071ZM26.3542 24.1018C26.3542 25.3446 25.3467 26.352 24.1039 26.352C22.861 26.352 21.8535 25.3445 21.8535 24.1017V19.4455C21.8535 17.7978 21.8206 15.6792 19.5114 15.6792C17.1663 15.6792 16.809 17.4737 16.809 19.326V24.1004C16.809 25.3442 15.8007 26.3525 14.557 26.3525C13.3132 26.3525 12.3049 25.3442 12.3049 24.1004V14.3104C12.3049 13.1167 13.2726 12.1491 14.4662 12.1491H15.6578C16.1934 12.1491 16.6275 12.5832 16.6275 13.1188V14.05C16.6275 14.0713 16.6448 14.0886 16.6661 14.0886C16.6803 14.0886 16.6932 14.081 16.7 14.0685C17.3084 12.9584 18.7739 11.7948 20.9531 11.7948C25.5124 11.7948 26.3545 14.7355 26.3545 18.5613L26.3542 24.1018Z" fill="#1650BA"/>
</svg>
