<svg width="36" height="36" viewBox="0 0 36 36" fill="none" xmlns="http://www.w3.org/2000/svg">
<path d="M18.0736 0.000150496C14.5104 -0.0144169 11.0231 1.02887 8.05336 2.99786C5.08361 4.96685 2.76506 7.77294 1.39139 11.0607C0.0177221 14.3485 -0.349254 17.97 0.336947 21.4664C1.02315 24.9629 2.73165 28.1771 5.24604 30.7018C7.76043 33.2265 10.9676 34.9482 14.4612 35.6487C17.9549 36.3492 21.5778 35.9971 24.8712 34.6369C28.1646 33.2767 30.9801 30.9697 32.9613 28.008C34.9424 25.0464 36 21.5633 36 18.0001C35.9962 13.2402 34.1086 8.67515 30.7497 5.30244C27.3908 1.92973 22.8335 0.0234822 18.0736 0.000150496V0.000150496ZM28.6705 18.736C27.3184 18.7342 25.9902 19.0933 24.8233 19.7764C23.6564 20.4594 22.693 21.4416 22.0327 22.6216L18.0736 29.7745L14.0556 22.6216C13.3989 21.4418 12.4383 20.4593 11.2737 19.776C10.1091 19.0928 8.7828 18.7337 7.43255 18.736H3.01718L15.601 7.28551C16.3056 6.62107 17.2375 6.25099 18.2061 6.25099C19.1746 6.25099 20.1065 6.62107 20.8111 7.28551L33.0123 18.7655L28.6705 18.736Z" fill="#FE7062"/>
</svg>
