<svg width="495" height="951" viewBox="0 0 495 951" fill="none" xmlns="http://www.w3.org/2000/svg">
<path d="M34.5204 598.651L5.50132 553.266L63.525 553.264L34.5204 598.651Z" fill="#002D71"/>
<path d="M238.325 5.57213C238.323 2.81071 240.56 0.570155 243.321 0.567713C246.082 0.565272 248.323 2.80187 248.325 5.56329L238.325 5.57213ZM243.429 123.232L248.429 123.228L248.429 123.235L243.429 123.232ZM390.775 264.435L340.757 293.272L340.792 235.537L390.775 264.435ZM248.325 5.56329L248.429 123.228L238.429 123.237L238.325 5.57213L248.325 5.56329ZM248.429 123.235C248.383 198.408 309.285 259.385 384.458 259.431L384.452 269.431C303.756 269.382 238.38 203.925 238.429 123.229L248.429 123.235Z" fill="#002D71"/>
<path d="M434.437 950.956L405.578 900.951L463.313 900.961L434.437 950.956ZM434.46 812.064L429.46 812.063L429.46 812.06L434.46 812.064ZM208.974 702.255C206.213 702.253 203.976 700.013 203.977 697.252C203.979 694.49 206.219 692.253 208.981 692.255L208.974 702.255ZM429.445 905.955L429.46 812.063L439.46 812.065L439.445 905.957L429.445 905.955ZM319.882 702.323L208.974 702.255L208.981 692.255L319.888 692.323L319.882 702.323ZM429.46 812.06C429.511 751.495 380.447 702.36 319.882 702.323L319.888 692.323C385.977 692.364 439.515 745.979 439.46 812.068L429.46 812.06Z" fill="#002D71"/>
<path d="M284.471 438.093L402.435 438.166C450.398 438.195 489.304 399.337 489.334 351.374V351.374C489.363 303.384 450.463 264.467 402.472 264.476L345.923 264.486" stroke="#002D71" stroke-width="10" stroke-linecap="round"/>
<path d="M285.14 697.302L164.161 697.227C92.7754 697.183 34.9419 639.279 34.9858 567.894V567.894C35.0297 496.509 92.9343 438.675 164.319 438.719L285.299 438.793" stroke="#002D71" stroke-width="10" stroke-linecap="round"/>
</svg>
