<svg width="206" height="42" viewBox="0 0 206 42" fill="none" xmlns="http://www.w3.org/2000/svg">
<path d="M23.8697 3.57251C20.423 3.57251 17.0536 4.59459 14.1877 6.50951C11.3218 8.42443 9.08816 11.1462 7.76914 14.3306C6.45012 17.515 6.105 21.019 6.77743 24.3995C7.44986 27.7801 9.10964 30.8853 11.5469 33.3225C13.9841 35.7597 17.0893 37.4195 20.4699 38.092C23.8504 38.7644 27.3544 38.4193 30.5388 37.1002C33.7232 35.7812 36.4449 33.5475 38.3599 30.6817C40.2748 27.8158 41.2969 24.4464 41.2969 20.9997C41.2918 16.3792 39.4542 11.9495 36.187 8.68236C32.9199 5.41522 28.4901 3.57754 23.8697 3.57251V3.57251ZM34.2082 21.7218C32.8957 21.7246 31.608 22.0785 30.4784 22.7469C29.3489 23.4153 28.4188 24.3737 27.7847 25.5227L23.9838 32.4594L20.0878 25.5227C19.4599 24.3725 18.5338 23.4126 17.4069 22.7438C16.28 22.075 14.9937 21.722 13.6833 21.7218H9.36927L21.5322 10.5662C22.2282 9.94639 23.1278 9.60395 24.0598 9.60395C24.9918 9.60395 25.8913 9.94639 26.5874 10.5662L38.3892 21.7028L34.2082 21.7218Z" fill="white"/>
<path d="M52.2814 30.844V12.1245H63.304V15.5073H56.2723V19.3082H63.304V22.8051H56.2723V30.901L52.2814 30.844Z" fill="white"/>
<path d="M69.6326 18.3013V24.8958C69.562 25.7448 69.8055 26.5901 70.3168 27.2714C70.9172 27.7383 71.6561 27.9919 72.4168 27.9919C73.1774 27.9919 73.9163 27.7383 74.5168 27.2714C75.0146 26.5848 75.2444 25.74 75.1629 24.8958V18.3013H78.8118V24.8958C78.9605 26.6629 78.4075 28.4175 77.2724 29.78C76.6145 30.3459 75.8506 30.7751 75.0251 31.0426C74.1996 31.3102 73.329 31.4107 72.4643 31.3384C71.5933 31.4159 70.7157 31.3179 69.8833 31.0503C69.0509 30.7826 68.2806 30.3506 67.6181 29.78C67.0473 29.11 66.6155 28.3331 66.348 27.4946C66.0804 26.656 65.9824 25.7726 66.0598 24.8958V18.3013H69.6326Z" fill="white"/>
<path d="M85.7863 21.5324C86.0666 20.4861 86.6325 19.5385 87.4207 18.7957C88.1339 18.1852 89.0478 17.8603 89.9863 17.8835C90.3632 17.8964 90.7382 17.9409 91.1076 18.0165H91.3547L90.8035 21.9124C90.5302 21.8127 90.251 21.7302 89.9673 21.6654C89.6767 21.6355 89.3838 21.6355 89.0931 21.6654C88.6558 21.6254 88.2151 21.6812 87.8015 21.8289C87.388 21.9766 87.0116 22.2126 86.6986 22.5206C86.1429 23.3549 85.8882 24.3537 85.9764 25.3523V30.8826H82.2705V18.3016H85.8624L85.7863 21.5324Z" fill="white"/>
<path d="M93.3882 30.8441V21.1518H91.6398V18.3012H93.3882V14.1392H97.0371V18.3012H98.8235V21.1518H97.0751V30.8441H93.3882Z" fill="white"/>
<path d="M101.028 30.8444V11.0227H104.525V18.0734C104.525 18.4725 104.525 18.8526 104.525 19.2517L104.411 20.3729C105.028 19.5996 105.789 18.954 106.653 18.4725C107.434 18.0705 108.303 17.8681 109.181 17.8833C110.031 17.8617 110.875 18.0306 111.652 18.3775C112.307 18.7069 112.845 19.2314 113.191 19.8788C113.387 20.2492 113.528 20.6461 113.609 21.0571C113.701 21.7436 113.739 22.4362 113.723 23.1286V30.8444H110.112V24.706C110.221 23.6565 110.037 22.5973 109.58 21.6462C109.351 21.3735 109.056 21.1627 108.724 21.0332C108.392 20.9037 108.033 20.8596 107.68 20.9051C107.2 20.8976 106.725 21.0017 106.292 21.2091C105.875 21.4151 105.516 21.7222 105.247 22.1023C105.022 22.4123 104.855 22.7598 104.753 23.1286C104.645 23.7048 104.6 24.2911 104.62 24.877V30.9014L101.028 30.8444Z" fill="white"/>
<path d="M129.459 25.4659H119.957C120.034 26.2397 120.384 26.9607 120.945 27.4994C121.533 27.9768 122.279 28.2144 123.035 28.1645C123.629 28.1876 124.218 28.0566 124.746 27.7844C125.247 27.5128 125.667 27.1127 125.962 26.6252L128.889 28.0885C128.293 29.1072 127.441 29.9523 126.418 30.5401C125.351 31.0944 124.161 31.369 122.959 31.3383C122.074 31.3835 121.189 31.2466 120.358 30.9361C119.528 30.6255 118.77 30.1479 118.132 29.5328C116.955 28.2092 116.347 26.4747 116.441 24.7057C116.415 23.8087 116.57 22.9158 116.896 22.08C117.223 21.2442 117.714 20.4826 118.341 19.8405C118.961 19.2109 119.706 18.7168 120.527 18.3897C121.348 18.0626 122.228 17.9095 123.111 17.9401C123.981 17.893 124.851 18.0275 125.665 18.3351C126.48 18.6426 127.222 19.1165 127.843 19.7265C128.441 20.3812 128.902 21.1489 129.199 21.9844C129.496 22.8199 129.623 23.7064 129.573 24.5917V24.9528C129.509 25.0541 129.471 25.2252 129.459 25.4659ZM125.848 23.2804C125.802 22.5918 125.497 21.9463 124.993 21.4749C124.45 21.0559 123.777 20.8406 123.092 20.8668C122.408 20.8454 121.737 21.0601 121.192 21.4749C120.665 21.94 120.327 22.5825 120.242 23.2804H125.848Z" fill="white"/>
<path d="M135.73 21.5322C135.988 20.4896 136.535 19.541 137.308 18.7955C138.016 18.1895 138.922 17.8648 139.854 17.8833C140.237 17.896 140.619 17.9405 140.995 18.0163H141.223L140.633 21.9503C140.368 21.848 140.094 21.7654 139.816 21.7032C139.526 21.6734 139.233 21.6734 138.942 21.7032C138.505 21.6632 138.064 21.719 137.65 21.8667C137.237 22.0144 136.861 22.2504 136.548 22.5584C135.992 23.3928 135.737 24.3916 135.825 25.3901V30.9204H132.214V18.3014H135.806L135.73 21.5322Z" fill="white"/>
<path d="M155.438 30.8445H151.922V28.9441C151.495 29.6706 150.886 30.2733 150.155 30.6925C149.363 31.0785 148.489 31.2676 147.608 31.2436C146.838 31.2629 146.073 31.101 145.377 30.7709C144.68 30.4408 144.071 29.9518 143.598 29.3432C142.518 27.9439 141.972 26.2054 142.059 24.44C141.947 22.6658 142.48 20.911 143.56 19.4988C144.078 18.9077 144.724 18.4416 145.448 18.1356C146.172 17.8295 146.956 17.6913 147.741 17.7314C148.6 17.7131 149.448 17.9299 150.193 18.3585C150.937 18.8281 151.546 19.483 151.96 20.259V18.3015H155.4L155.438 30.8445ZM152.036 24.554C152.093 23.5888 151.796 22.636 151.2 21.8744C150.921 21.5623 150.578 21.3141 150.194 21.1468C149.81 20.9796 149.395 20.8971 148.976 20.9051C148.539 20.8842 148.103 20.9603 147.699 21.1278C147.295 21.2954 146.933 21.5504 146.639 21.8744C146.037 22.6327 145.739 23.5879 145.803 24.554C145.739 25.5084 146.038 26.4517 146.639 27.1956C147.261 27.805 148.096 28.1463 148.967 28.1463C149.838 28.1463 150.673 27.805 151.295 27.1956C151.862 26.4381 152.127 25.4961 152.036 24.554V24.554Z" fill="white"/>
<path d="M158.878 30.8444V18.3014H162.432V20.2019C163.005 19.4559 163.731 18.8405 164.56 18.3964C165.334 17.993 166.196 17.7904 167.069 17.8073C167.913 17.784 168.751 17.953 169.52 18.3014C170.182 18.6298 170.726 19.154 171.079 19.8028C171.276 20.1709 171.41 20.569 171.478 20.9811C171.578 21.6668 171.623 22.3596 171.611 23.0525V30.7684H167.962V24.7059C168.057 23.657 167.873 22.6016 167.43 21.6462C167.199 21.3748 166.905 21.165 166.573 21.0356C166.241 20.9062 165.883 20.8613 165.529 20.905C165.054 20.8921 164.584 20.9943 164.157 21.2027C163.73 21.4112 163.36 21.7199 163.078 22.1023C162.859 22.4132 162.698 22.7608 162.603 23.1286C162.486 23.7037 162.435 24.2903 162.451 24.877V30.9014L158.878 30.8444Z" fill="white"/>
<path d="M184.344 30.4071C183.863 30.71 183.337 30.9346 182.786 31.0723C182.201 31.214 181.601 31.2842 180.999 31.2813C180.107 31.3141 179.218 31.1622 178.387 30.8352C177.556 30.5081 176.802 30.013 176.172 29.3809C175.537 28.737 175.04 27.9696 174.713 27.1263C174.387 26.2829 174.236 25.3815 174.272 24.4777C174.239 23.5885 174.391 22.7021 174.718 21.8746C175.045 21.0471 175.54 20.2963 176.172 19.6695C176.812 19.04 177.573 18.5469 178.41 18.2202C179.246 17.8936 180.14 17.7401 181.037 17.7691C181.638 17.7592 182.238 17.823 182.824 17.9591C183.352 18.0854 183.858 18.2905 184.325 18.5673V22.2161C183.952 21.8204 183.498 21.5093 182.995 21.3039C182.49 21.0897 181.947 20.9798 181.398 20.9809C180.946 20.9609 180.495 21.035 180.073 21.1986C179.651 21.3622 179.267 21.6116 178.947 21.9311C178.633 22.2629 178.389 22.6542 178.229 23.0817C178.069 23.5093 177.997 23.9646 178.015 24.4207C177.995 24.8843 178.069 25.3472 178.232 25.7816C178.395 26.216 178.645 26.6128 178.966 26.9483C179.304 27.2638 179.702 27.5086 180.136 27.6685C180.57 27.8284 181.031 27.9001 181.493 27.8795C182.035 27.9041 182.575 27.8018 183.07 27.5807C183.564 27.3596 184.001 27.0259 184.344 26.6062V30.4071Z" fill="white"/>
<path d="M199.281 25.4659H189.779C189.851 26.2371 190.195 26.9578 190.748 27.4994C191.338 27.9735 192.084 28.2107 192.839 28.1645C193.438 28.1849 194.033 28.0542 194.568 27.7844C195.064 27.5116 195.477 27.1113 195.766 26.6252L198.711 28.0885C198.108 29.1079 197.25 29.9528 196.222 30.5401C195.155 31.0944 193.965 31.369 192.763 31.3383C191.878 31.3824 190.993 31.2449 190.163 30.9345C189.333 30.624 188.575 30.147 187.936 29.5328C186.758 28.2092 186.151 26.4747 186.244 24.7057C186.219 23.8087 186.374 22.9158 186.7 22.08C187.027 21.2442 187.518 20.4826 188.145 19.8405C188.762 19.2114 189.502 18.7175 190.32 18.3903C191.138 18.0631 192.015 17.9098 192.896 17.9401C193.766 17.893 194.635 18.0275 195.45 18.3351C196.265 18.6426 197.007 19.1165 197.628 19.7265C198.229 20.3803 198.693 21.1474 198.993 21.9828C199.293 22.8182 199.423 23.7052 199.376 24.5917C199.385 24.7119 199.385 24.8326 199.376 24.9528C199.356 25.1257 199.324 25.2971 199.281 25.4659V25.4659ZM195.747 23.2804C195.687 22.5916 195.376 21.9488 194.872 21.4749C194.33 21.0559 193.657 20.8406 192.972 20.8668C192.288 20.8485 191.618 21.0629 191.072 21.4749C190.551 21.9431 190.22 22.5851 190.14 23.2804H195.747Z" fill="white"/>
</svg>
